<?xml version="1.0"?>
<svg height="24" viewBox="0 0 24 24" width="24" xmlns="http://www.w3.org/2000/svg">
	<path d="M11.3129 2.92959C9.58651 2.06697 7.66115 2.57073 6.51329 3.84999C6.42831 3.9447 6.31043 4.00344 6.18365 4.01426C4.20774 4.18284 2.5 5.82061 2.5 8.01927V15.9807C2.5 18.1794 4.20774 19.8171 6.18365 19.9857C6.31043 19.9965 6.42832 20.0553 6.51329 20.15C7.66115 21.4293 9.5865 21.933 11.3129 21.0704L19.2798 17.0897C21.2258 16.1173 21.8977 13.9586 21.2765 12.1635C21.2398 12.0576 21.2398 11.9424 21.2765 11.8365C21.8977 10.0413 21.2258 7.88264 19.2798 6.9103L11.3129 2.92959ZM5.90306 3.0385C7.34123 1.55679 9.66578 0.988693 11.7599 2.03504L19.7268 6.01576C22.1058 7.20444 22.9493 9.80993 22.2749 12C22.9493 14.19 22.1058 16.7955 19.7268 17.9842L11.7599 21.9649C9.66577 23.0113 7.34123 22.4432 5.90307 20.9615C3.52993 20.6635 1.5 18.6619 1.5 15.9807V8.01927C1.5 5.33807 3.52993 3.33648 5.90306 3.0385ZM10.1595 5.84447C8.01828 4.77462 5.5 6.33082 5.5 8.72175V15.2782C5.5 17.6692 8.01828 19.2254 10.1594 18.1555L16.7204 14.8773C19.0932 13.6917 19.0932 10.3083 16.7204 9.12271L10.1595 5.84447ZM4.5 8.72175C4.5 5.58643 7.80137 3.54836 10.6064 4.94992L17.1674 8.22816C20.2775 9.78217 20.2775 14.2178 17.1674 15.7718L10.6064 19.0501C7.80137 20.4516 4.5 18.4135 4.5 15.2782V8.72175Z" fill="#74A642"/>
	<path d="M10.5835 9.6175C9.85552 9.25377 9 9.78303 9 10.595V13.405C9 14.217 9.85552 14.7462 10.5835 14.3825L13.3953 12.9775C14.2016 12.5747 14.2016 11.4253 13.3953 11.0225L10.5835 9.6175ZM8 10.595C8 9.03865 9.63862 8.02751 11.0305 8.72295L13.8423 10.1279C15.3859 10.8992 15.3859 13.1008 13.8423 13.8721L11.0305 15.277C9.63861 15.9725 8 14.9613 8 13.405V10.595Z" fill="#74A642" />
</svg>
